<?xml version="1.0" encoding="utf-8"?>
<!-- Generator: Adobe Illustrator 17.0.0, SVG Export Plug-In . SVG Version: 6.00 Build 0)  -->
<!DOCTYPE svg PUBLIC "-//W3C//DTD SVG 1.1//EN" "http://www.w3.org/Graphics/SVG/1.1/DTD/svg11.dtd">
<svg version="1.1" id="Layer_1" xmlns="http://www.w3.org/2000/svg" xmlns:xlink="http://www.w3.org/1999/xlink" x="0px" y="0px"
	 width="730px" height="360px" viewBox="0 0 730 360" enable-background="new 0 0 730 360" xml:space="preserve">
<g>
	<g>
		<g>
			<g>
				<path fill="#D0EB51" d="M717.688,204.622h-352.68H12.312c-6.8,0-12.312,5.513-12.312,12.313v4.623
					c0,6.8,5.512,12.311,12.312,12.311h352.695h352.68c6.8,0,12.312-5.512,12.312-12.311v-4.623
					C730,210.135,724.487,204.622,717.688,204.622z"/>
			</g>
		</g>
		<g>
			<rect x="12.312" y="233.87" fill="#94CE28" width="705.375" height="61.179"/>
			<rect x="12.312" y="295.049" fill="#1B9B05" width="705.375" height="64.951"/>
		</g>
	</g>
	<g>
		<g>
			<g>
				<g>
					<polygon fill="#FC7575" points="419.513,36.167 407.595,36.168 407.595,12.163 419.513,11.931 					"/>
					<rect x="444.212" y="12.163" fill="#FC7575" width="13.198" height="24.005"/>
					<path fill="#D13D3D" d="M432.504,0.117c-10.328,0-20.656,3.931-28.52,11.794c-2.814,2.814-2.814,7.373,0,10.187
						c2.876,2.878,5.965,3.178,10.188,0c5.711-4.298,11.693-7.581,18.332-7.581c6.639,0,13.278,2.527,18.332,7.581
						c1.406,1.407,3.25,2.11,5.094,2.11s3.688-0.704,5.094-2.11c2.814-2.814,2.814-7.373,0-10.187
						C453.16,4.048,442.832,0.117,432.504,0.117"/>
					<path fill="#3B7F0E" d="M343.032,195.344L343.032,195.344c0.002,0.008,0.004,0.016,0.006,0.024
						C343.036,195.36,343.035,195.352,343.032,195.344z"/>
				</g>
			</g>
		</g>
		<g>
			<g>
				<g>
					<path fill="#1A6B31" d="M461.283,130.823L461.283,130.823c-0.102-0.296-0.211-0.589-0.326-0.881l0,0
						C461.072,130.233,461.18,130.527,461.283,130.823z"/>
					<path fill="#1A6B31" d="M456.069,122.466c-1.565-1.565-3.318-2.838-5.193-3.836c-0.726-0.386-1.47-0.73-2.231-1.032
						c-0.296-0.117-0.593-0.229-0.894-0.333c0.381,0.555,0.779,1.101,1.183,1.645c1.502,2.023,3.157,3.967,4.992,5.801l0.051-0.051
						l2.142-2.142C456.102,122.501,456.086,122.483,456.069,122.466z"/>
					<path fill="#083F14" d="M460.957,129.942c-0.106-0.269-0.214-0.537-0.33-0.802c-1.062-2.417-2.563-4.663-4.509-6.622
						l-2.142,2.142l-0.051,0.051c0.188,0.188,0.385,0.362,0.575,0.546c0.094,0.1,0.179,0.207,0.277,0.305
						c0.307,0.308,0.63,0.596,0.962,0.872c1.448,1.318,2.957,2.528,4.51,3.651c0.343,0.249,0.686,0.498,1.034,0.737
						C461.18,130.527,461.072,130.233,460.957,129.942z"/>
				</g>
				<g>
					<path fill="#127045" d="M525.123,41.86c-19.934-11.086-45.558-8.18-62.488,8.75c-16.166,16.166-19.538,40.257-10.158,59.754
						c0,0,0,0,0,0c1.142,2.375,2.462,4.685,3.983,6.901c0.3,0.105,0.598,0.216,0.894,0.333c0.761,0.302,1.505,0.646,2.231,1.032
						c-3.461-12.481,4.909-32.497,21.741-49.329c15.298-15.298,33.225-23.604,45.736-22.392c-0.04-1.282,0.22-2.447,0.784-3.413
						C526.949,42.925,526.045,42.373,525.123,41.86z M473.007,51.144c1.178-0.937,2.371-1.812,3.576-2.627
						C475.378,49.332,474.185,50.207,473.007,51.144z"/>
					<path fill="#127045" d="M545.459,62.179c0.116,0.357,0.22,0.721,0.325,1.084c-0.11-0.359-0.219-0.72-0.334-1.074
						c-0.259-0.464-0.536-0.92-0.809-1.378c-0.757,0.37-1.624,0.559-2.56,0.59c1.531,12.534-6.796,30.786-22.333,46.323
						c-0.001,0.001-0.002,0.002-0.003,0.003c-0.002,0.002-0.004,0.004-0.005,0.006c-17.324,17.324-38.028,25.694-50.412,21.416
						c0.116,0.265,0.224,0.533,0.33,0.802h0c0.115,0.292,0.223,0.585,0.326,0.881h0v0c1.37,0.945,2.777,1.811,4.212,2.61
						c0.02,0.007,0.041,0.012,0.061,0.019c19.932,11.082,45.552,8.177,62.479-8.751C553.679,107.768,556.575,82.118,545.459,62.179z
						"/>
					<path fill="#1B9B05" d="M542.072,61.4c-3.111,0.099-6.984-1.612-10.188-4.816c-0.189-0.189-0.364-0.384-0.543-0.578
						c-2.684-2.907-4.192-6.27-4.279-9.098c-12.511-1.212-30.438,7.094-45.736,22.392c-16.832,16.832-25.202,36.848-21.741,49.329
						c1.875,0.998,3.628,2.271,5.193,3.836c0.017,0.017,0.033,0.035,0.05,0.052c1.946,1.959,3.446,4.205,4.509,6.622
						c12.383,4.276,33.085-4.091,50.409-21.413C535.283,92.186,543.608,73.933,542.072,61.4z"/>
					<path fill="#94CE28" d="M542.84,57.976c-0.005-0.007-0.007-0.01-0.012-0.017c0.007,0.003,0.014,0.005,0.021,0.008
						c-0.24-0.348-0.489-0.691-0.738-1.035c-1.124-1.552-2.334-3.062-3.652-4.51c-0.276-0.331-0.564-0.654-0.872-0.962
						c-0.098-0.097-0.205-0.182-0.305-0.277c-0.184-0.19-0.359-0.387-0.547-0.575c-1.898-1.897-3.914-3.601-6.012-5.143
						c-0.475-0.35-0.95-0.7-1.434-1.032c-0.475-0.326-0.961-0.632-1.445-0.94c-0.564,0.966-0.824,2.131-0.784,3.413
						c0.087,2.827,1.595,6.191,4.279,9.098c0.179,0.194,0.354,0.366,0.543,0.555c3.205,3.205,7.078,4.793,10.188,4.793
						c0.003,0,0.007,0,0.01,0c0.935,0,1.803-0.197,2.56-0.567C544.071,59.829,543.479,58.903,542.84,57.976z"/>
				</g>
			</g>
			<g>
				<path fill="#56BA22" d="M549.671,178.357l-0.059,0.006l-1.259,12.493c-0.191,1.894-1.688,3.391-3.582,3.583l-12.5,1.264
					l-0.868,8.581h36.95c0-9.78,3.339-18.774,8.927-25.927H549.671z"/>
				<path fill="#56BA22" d="M600.348,138.86c-0.191,1.895-1.689,3.393-3.583,3.583l-9.356,0.942v25.639
					c6.637-4.358,14.572-6.901,23.105-6.901v-3.174v-33.477l-8.908,0.898L600.348,138.86z"/>
				<path fill="#94CE28" d="M587.409,169.025v-25.639l-3.132,0.315l-1.257,12.488c-0.191,1.895-1.689,3.393-3.584,3.583
					l-12.488,1.256l-1.259,12.492c-0.191,1.894-1.689,3.392-3.583,3.583l-12.436,1.254h27.61
					C580.122,174.721,583.542,171.564,587.409,169.025z"/>
				<path fill="#127045" d="M578.671,204.283h9.175h7.556h5.585c5.261,0,9.527-4.265,9.527-9.527v-5.585v-16.729v-10.318
					c-8.533,0-16.468,2.543-23.105,6.901c-3.867,2.539-7.288,5.696-10.128,9.333c-5.588,7.152-8.927,16.147-8.927,25.927
					L578.671,204.283L578.671,204.283z"/>
			</g>
			<g>
				<polygon fill="none" points="342.426,47.044 342.429,47.034 342.425,47.046 				"/>
				<path fill="none" d="M343.031,195.344c0.002,0.008,0.005,0.016,0.007,0.024C343.036,195.36,343.035,195.352,343.031,195.344
					L343.031,195.344z"/>
				<path fill="#56BA22" d="M338.45,69.356c-7.152,5.588-16.147,8.927-25.927,8.927v3.174v80.815c9.78,0,18.774,3.339,25.927,8.927
					V69.356z"/>
				<path fill="#56BA22" d="M347.783,181.329c4.358,6.637,6.901,14.572,6.901,23.105h77.82h77.82c0-8.533,2.543-16.468,6.901-23.105
					H347.783z"/>
				<path fill="#56BA22" d="M543.903,114.365l-1.264-12.5c-0.192-1.894-1.689-3.391-3.582-3.582l-12.493-1.259l-0.006-0.059V171.2
					c7.152-5.588,16.147-8.927,25.927-8.927v-47.04L543.903,114.365z"/>
				<path fill="#56BA22" d="M491.585,59.228l-0.942-9.356c-0.191-1.894-1.689-3.393-3.583-3.583l-12.489-1.257l-0.898-8.908h-41.169
					h-77.82c0,8.533-2.543,16.468-6.901,23.105H491.585z"/>
				<polygon fill="#3B7F0E" points="324.286,65.715 324.286,65.715 324.279,65.718 				"/>
				<path fill="#3B7F0E" d="M342.429,47.034c-0.002,0.005-0.004,0.011-0.005,0.016l0.001-0.004
					C342.426,47.042,342.427,47.037,342.429,47.034z"/>
				<path fill="#94CE28" d="M521.72,80.948l-12.492-1.259l-1.256-12.488c-0.191-1.895-1.689-3.393-3.583-3.584l-12.488-1.257
					l-0.315-3.132H347.783c-2.539,3.867-5.696,7.287-9.333,10.128v101.844c3.636,2.841,6.793,6.261,9.333,10.128h169.442
					c2.539-3.867,5.696-7.288,9.333-10.128V96.966l-1.254-12.436C525.112,82.636,523.614,81.139,521.72,80.948z"/>
				<path fill="#127045" d="M344.365,36.142v-0.003c0,0.011-0.001,0.025-0.001,0.037C344.363,36.159,344.365,36.142,344.365,36.142z
					"/>
				<polygon fill="#127045" points="342.425,47.046 342.423,47.049 342.424,47.049 				"/>
				<path fill="#127045" d="M344.366,36.124v0.001c0,0,0,0.01-0.001,0.015v0.003c0,0-0.001,0.017-0.001,0.035
					c0-0.013,0.001-0.026,0.001-0.037L344.366,36.124h-9.176v0.001h-13.14c-5.261,0-9.527,4.265-9.527,9.527v13.14v9.175h0v10.318
					c9.78,0,18.774-3.339,25.927-8.927c3.636-2.841,6.793-6.261,9.333-10.128c4.358-6.637,6.901-14.572,6.901-23.105H344.366z
					 M324.286,65.715c-0.002,0.001-0.005,0.002-0.007,0.003C324.281,65.717,324.283,65.716,324.286,65.715L324.286,65.715z
					 M342.429,47.034c-0.002,0.005-0.003,0.011-0.003,0.011l-0.001,0.001c0,0.001-0.001,0.004-0.001,0.004h0
					C342.425,47.044,342.427,47.039,342.429,47.034z"/>
				<path fill="#127045" d="M354.683,204.433c0-8.533-2.543-16.468-6.901-23.105c-2.539-3.867-5.696-7.287-9.333-10.128
					c-7.152-5.588-16.147-8.927-25.927-8.927v10.318h0v10.427v0.736v11.151c0,5.262,4.265,9.527,9.527,9.527h13.14h3.007h6.168
					c0-0.04-0.003-0.079-0.003-0.119c0,0.04,0.004,0.079,0.004,0.119H354.683z M343.031,195.344L343.031,195.344
					c0.003,0.008,0.005,0.017,0.007,0.024C343.036,195.36,343.034,195.352,343.031,195.344z"/>
				<path fill="#127045" d="M526.557,171.2c-3.636,2.841-6.793,6.261-9.333,10.128c-4.358,6.637-6.901,14.572-6.901,23.105h10.317
					h11.799h10.516c5.262,0,9.527-4.265,9.527-9.527v-13.95v-1.946v-6.419h0l0-10.318C542.704,162.273,533.71,165.612,526.557,171.2
					z"/>
			</g>
			<g>
				<g>
					<g>
						<g>
							<g>
								<g>
									<g>
										<g>
											<g>
												<path fill="#94CE28" d="M149.708,116.122l3.471,55.691v20.071h-16.073c-8.567,0-15.496-6.945-15.511-15.511
													c-0.025-14.158,6.136-23.574,4.915-40.461C125.96,128.308,149.364,116.094,149.708,116.122z"/>
											</g>
											<g>
												<path fill="#D0EB51" d="M125.838,128.05c0-8.567,7.642-17.603,16.209-17.603h9.314v23.29
													c0,8.566-8.597,15.687-17.164,15.687h-14.694C124.417,143.496,125.838,128.05,125.838,128.05z"/>
												<g>
													<path fill="#94CE28" d="M292.575,115.015v55.691v20.071h12.602c8.567,0,15.496-6.945,15.511-15.511
														c0.025-14.158-6.136-23.574-4.915-40.461C316.322,127.201,292.919,114.988,292.575,115.015z"/>
												</g>
												<path fill="#D0EB51" d="M316.445,128.05c0-8.567-7.642-17.603-16.209-17.603h-7.72l0.058,23.466
													c0,8.566,6.945,15.511,15.511,15.511h14.694C317.865,143.496,316.445,128.05,316.445,128.05z"/>
											</g>
										</g>
										<path fill="#56BA22" d="M274.199,74.078h-53.057v0.441l-51.689-0.441c-10.929,0-19.789,8.86-19.789,19.789v90.843
											c0,10.929,8.86,19.788,19.789,19.788h51.689h53.057c10.929,0,19.789-8.859,19.789-19.788V93.867
											C293.988,82.938,285.128,74.078,274.199,74.078z"/>
										<path fill="#94CE28" d="M273.18,55.817h-52.038h-52.039c-11.492,0-20.807,9.316-20.807,20.808v17.157
											c0,11.491,9.316,20.807,20.807,20.807h52.039h52.038c11.492,0,20.807-9.316,20.807-20.807V76.625
											C293.988,65.133,284.672,55.817,273.18,55.817z"/>
										<path fill="#94CE28" d="M260.586,124.506h-39.68h-39.68c-8.566,0-15.511,6.945-15.511,15.511v33.569
											c0,8.567,6.945,15.511,15.511,15.511h39.68h39.68c8.566,0,15.511-6.944,15.511-15.511v-33.569
											C276.097,131.451,269.152,124.506,260.586,124.506z"/>
										<g>
											<g>
												<g>
													<path fill="#127045" d="M261.304,55.818v75.529c0,5.389-4.369,9.759-9.759,9.759s-9.759-4.37-9.759-9.759V55.818
														H261.304z"/>
												</g>
											</g>
											<g>
												<g>
													<path fill="#FFFFFF" d="M236.363,90.103v18.587c0,3.248,2.641,5.888,5.888,5.888h18.59
														c3.244,0,5.885-2.639,5.885-5.888V90.103c0-3.246-2.641-5.885-5.885-5.885h-18.59
														C239.004,84.218,236.363,86.857,236.363,90.103z M241.786,90.102c0-0.257,0.208-0.464,0.465-0.464h18.589
														c0.256,0,0.464,0.206,0.464,0.464v18.588c0,0.257-0.208,0.467-0.464,0.467h-18.589c-0.257,0-0.465-0.21-0.465-0.467
														V90.102z"/>
												</g>
												<path fill="#FFFFFF" d="M249.517,88.125c0-1.12,0.908-2.029,2.029-2.029l0,0c1.12,0,2.029,0.908,2.029,2.029V98.3
													c0,1.12-0.908,2.029-2.029,2.029l0,0c-1.12,0-2.029-0.908-2.029-2.029V88.125z"/>
											</g>
										</g>
										<g>
											<g>
												<g>
													<path fill="#127045" d="M181.02,55.818v75.357c0,5.39,4.369,9.759,9.759,9.759c5.39,0,9.759-4.37,9.759-9.759V55.818
														H181.02z"/>
												</g>
											</g>
											<g>
												<g>
													<path fill="#FFFFFF" d="M200.073,84.218h-18.59c-3.244,0-5.885,2.639-5.885,5.885v18.587
														c0,3.248,2.641,5.888,5.885,5.888h18.59c3.247,0,5.888-2.639,5.888-5.888V90.103
														C205.961,86.857,203.32,84.218,200.073,84.218z M200.538,108.69c0,0.257-0.208,0.467-0.465,0.467h-18.589
														c-0.256,0-0.464-0.21-0.464-0.467V90.102c0-0.257,0.208-0.464,0.464-0.464h18.589c0.257,0,0.465,0.206,0.465,0.464
														V108.69z"/>
												</g>
												<path fill="#FFFFFF" d="M192.807,88.125c0-1.12-0.908-2.029-2.029-2.029l0,0c-1.12,0-2.029,0.908-2.029,2.029V98.3
													c0,1.12,0.908,2.029,2.029,2.029l0,0c1.12,0,2.029-0.908,2.029-2.029V88.125z"/>
											</g>
										</g>
										<path fill="#1B9B05" d="M221.128,30.682c-13.882,0-25.135,11.253-25.135,25.135h9.534c0-8.616,6.985-15.601,15.601-15.601
											c8.616,0,15.601,6.985,15.601,15.601h9.534C246.263,41.935,235.01,30.682,221.128,30.682z"/>
									</g>
								</g>
							</g>
							<g>
								<g>
									<path fill="#127045" d="M263.019,147.641c2.044,0,3.707,1.611,3.707,3.658l0,0c0,2.049-1.663,3.658-3.707,3.658h-85.92
										c-2.049,0-3.707-1.609-3.707-3.658l0,0c0-2.047,1.657-3.658,3.707-3.658H263.019z"/>
								</g>
								<path fill="#FFFFFF" d="M266.726,161.672c0,2.992-2.43,5.419-5.418,5.419c-3.033,0-5.421-2.09-5.421-5.419
									c0-2.992,2.427-10.374,5.421-10.374C264.296,151.298,266.726,158.68,266.726,161.672z"/>
							</g>
						</g>
					</g>
				</g>
			</g>
			<g>
				<path fill="#1B9B05" d="M491.995,118.523c1.591,1.591,1.591,4.17,0,5.761l0,0c-1.591,1.591-4.17,1.591-5.761,0l-27.524-27.524
					c-1.591-1.591-1.591-4.17,0-5.761l0,0c1.591-1.591,4.17-1.591,5.761,0L491.995,118.523z"/>
				<path fill="#1B9B05" d="M503.516,107.001c1.591,1.591,1.591,4.17,0,5.761l0,0c-1.591,1.591-4.17,1.591-5.761,0l-27.524-27.524
					c-1.591-1.591-1.591-4.17,0-5.761l0,0c1.591-1.591,4.17-1.591,5.761,0L503.516,107.001z"/>
				<path fill="#1B9B05" d="M497.755,90.998c1.591-1.591,4.17-1.591,5.761,0l0,0c1.591,1.591,1.591,4.17,0,5.761l-27.524,27.524
					c-1.591,1.591-4.17,1.591-5.761,0l0,0c-1.591-1.591-1.591-4.17,0-5.761L497.755,90.998z"/>
				<path fill="#1B9B05" d="M486.234,79.477c1.591-1.591,4.17-1.591,5.761,0l0,0c1.591,1.591,1.591,4.17,0,5.761l-27.524,27.524
					c-1.591,1.591-4.17,1.591-5.761,0l0,0c-1.591-1.591-1.591-4.17,0-5.761L486.234,79.477z"/>
			</g>
		</g>
	</g>
	<g>
		<circle fill="#EF5854" cx="149.664" cy="64.621" r="43.02"/>
	</g>
	<g>
		<path fill="#FFFFFF" d="M148.554,90.945c-3.071,0-5.57-2.499-5.57-5.57s2.499-5.57,5.57-5.57c3.072,0,5.571,2.499,5.571,5.57
			S151.626,90.945,148.554,90.945z"/>
	</g>
	<g>
		<g>
			<path fill="#FFFFFF" d="M148.082,74.114c-1.752,0-3.085-1.195-3.317-2.973l-0.721-6.163c-0.138-0.928,0.066-1.802,0.596-2.489
				c0.568-0.739,1.475-1.212,2.549-1.329c6.967-0.669,10.492-3.213,10.492-7.561v-0.145c0-4.037-3.231-6.645-8.231-6.645
				c-3.631,0-6.819,1.282-9.746,3.917c-0.87,0.695-1.887,1.065-2.85,1.065c-2.357,0-4.274-1.877-4.274-4.184
				c0-1.27,0.536-2.431,1.509-3.268c4.297-4.053,9.368-6.042,15.461-6.042c10.446,0,17.196,5.836,17.196,14.868v0.145
				c0,7.863-5.19,13.101-14.621,14.765l-0.284,3.059c-0.334,1.828-1.665,2.981-3.327,2.981H148.082z"/>
		</g>
	</g>
</g>
</svg>
