<?xml version="1.0" encoding="utf-8"?>
<!-- Generator: Adobe Illustrator 17.0.0, SVG Export Plug-In . SVG Version: 6.00 Build 0)  -->
<!DOCTYPE svg PUBLIC "-//W3C//DTD SVG 1.1//EN" "http://www.w3.org/Graphics/SVG/1.1/DTD/svg11.dtd">
<svg version="1.1" id="Layer_1" xmlns="http://www.w3.org/2000/svg" xmlns:xlink="http://www.w3.org/1999/xlink" x="0px" y="0px"
	 width="730px" height="360px" viewBox="0 0 730 360" enable-background="new 0 0 730 360" xml:space="preserve">
<g>
	<g>
		<g>
			<path fill="#EF5854" d="M84,98.284V84.572c0-4.404-2.596-7.987-7-7.987s-7,3.583-7,7.987v13.712l-13-2.77V84.572
				c0-11.76,7.74-21.328,19.5-21.328S96,72.812,96,84.572v10.942L84,98.284z"/>
			<path fill="#94CE28" d="M78.484,90.552C35.139,90.552,0,125.691,0,169.036v128.269C0,309.839,10.16,320,22.694,320h55.79h55.79
				c12.534,0,22.694-10.161,22.694-22.695V169.036C156.968,125.691,121.83,90.552,78.484,90.552z"/>
			<path fill="#56BA22" d="M130.267,235H78.506H26.745C20.63,235,14,239.863,14,245.978v43.656C14,295.748,20.63,303,26.745,303
				h51.761h51.761c6.115,0,9.733-7.252,9.733-13.367v-43.656C140,239.863,136.382,235,130.267,235z"/>
		</g>
		<g>
			<path fill="#127045" d="M124.713,242.483c2.894,0,5.248,2.28,5.248,5.178l0,0c0,2.901-2.354,5.178-5.248,5.178H31.947
				c-2.901,0-5.248-2.277-5.248-5.178l0,0c0-2.898,2.346-5.178,5.248-5.178H124.713z"/>
		</g>
		<path fill="#FFFFFF" d="M42.044,262.348c0,4.236-3.441,7.672-7.67,7.672c-4.294,0-7.675-2.96-7.675-7.672
			c0-4.237,3.436-14.687,7.675-14.687C38.603,247.662,42.044,258.112,42.044,262.348z"/>
	</g>
	<g>
		<g>
			<path fill="#1B9B05" d="M730,175.127c0-3.99-3.235-7.225-7.225-7.225H497.827c-3.99,0-7.225,3.235-7.225,7.225v137.648
				c0,3.99,3.235,7.225,7.225,7.225h224.948c3.99,0,7.225-3.235,7.225-7.225V175.127z"/>
			<path fill="#56BA22" d="M709.078,292.532c0,3.99-3.235,7.225-7.225,7.225H518.54c-3.99,0-7.225-3.235-7.225-7.225v-96.358
				c0-3.99,3.235-7.225,7.225-7.225h183.313c3.99,0,7.225,3.235,7.225,7.225V292.532z"/>
			<path fill="#D13D3D" d="M610.301,132.358c-19.653,0-35.585,15.931-35.585,35.585h13.498c0-12.198,9.889-22.087,22.087-22.087
				c12.198,0,22.087,9.889,22.087,22.087h13.498C645.886,148.289,629.954,132.358,610.301,132.358z"/>
			<g>
				<path fill="#127045" d="M696.718,195.811c2.894,0,5.248,2.28,5.248,5.178l0,0c0,2.901-2.354,5.178-5.248,5.178H523.675
					c-2.901,0-5.248-2.277-5.248-5.178l0,0c0-2.898,2.346-5.178,5.248-5.178H696.718z"/>
			</g>
			<path fill="#FFFFFF" d="M701.966,215.676c0,4.236-3.441,7.672-7.67,7.672c-4.294,0-7.675-2.96-7.675-7.672
				c0-4.237,3.436-14.687,7.675-14.687C698.525,200.989,701.966,211.439,701.966,215.676z"/>
		</g>
		<g>
			<g>
				<path fill="#D13D3D" d="M272,125.78C272,105.859,255.972,89,236.051,89h-4.573C211.557,89,195,105.859,195,125.78V169h0.429
					c-0.009,0-0.021-0.154-0.021-0.01c0,3.531,2.862,6.175,6.393,6.175s6.393-2.535,6.393-6.066c0-0.144-0.012-0.099-0.021-0.099
					H207v-43.22c0-12.839,11.638-23.78,24.478-23.78h4.573C248.89,102,260,112.941,260,125.78V169h-0.643
					c-0.009,0-0.021-0.154-0.021-0.01c0,3.531,2.862,6.175,6.393,6.175s6.393-2.535,6.393-6.066c0-0.144-0.012-0.099-0.021-0.099
					H272V125.78z"/>
				<path fill="#1B9B05" d="M334.189,164.629c0-6.077-26.324,4.153-32.401,4.153l-67.859-1.163l-80.01-1.372
					c-6.077,0-20.251-7.696-20.251-1.618l-9.17,144.366c0,6.077,4.927,11.004,11.004,11.004h98.426h98.426
					c6.077,0,11.004-4.927,11.004-11.004L334.189,164.629z"/>
				<path fill="#4DA61B" d="M201.024,178.353v-0.029h-1.751c0.005,0.01,0.012,0.019,0.017,0.029H201.024z"/>
				<path fill="#127045" d="M340,186.372v-26.605c-35-6.35-68.401-8.643-105.5-8.643c-37.099,0-74.5,2.522-105.5,8.643v29.85
					l-0.3,0.079c0.043,9.077,7.217,16.423,16.304,16.423c0.638,0,1.167-0.604,1.785-0.675l0.032-0.445h176.134
					c9.114,0,16.935-6.829,16.935-15.943C339.891,187.946,340,187.421,340,186.372z"/>
				<path fill="#FFFFFF" d="M244,209.738c0,2.354-1.908,4.262-4.262,4.262h-16.476c-2.354,0-4.262-1.908-4.262-4.262v-8.476
					c0-2.354,1.908-4.262,4.262-4.262h16.476c2.354,0,4.262,1.908,4.262,4.262V209.738z"/>
			</g>
			<g>
				<g>
					<g>
						<g>
							<g>
								<g>
									<path fill="#94CE28" d="M314.045,193.314l4.914,78.844v28.415h-22.755c-12.128,0-21.938-9.832-21.96-21.96
										c-0.036-20.044,8.687-33.375,6.959-57.282C280.424,210.566,313.558,193.275,314.045,193.314z"/>
								</g>
								<g>
									<path fill="#D0EB51" d="M280.251,196.102c0-12.128,10.819-24.922,22.947-24.922h13.186v48.639
										c0,12.128-12.171,22.209-24.299,22.209h-20.804C278.24,233.635,280.251,196.102,280.251,196.102z"/>
									<g>
										<path fill="#94CE28" d="M516.308,193.314v78.844v28.415h17.841c12.128,0,21.938-9.832,21.96-21.96
											c0.036-20.044-8.687-33.375-6.959-57.282C549.928,210.566,516.795,193.275,516.308,193.314z"/>
									</g>
									<path fill="#D0EB51" d="M550.102,196.102c0-12.128-10.819-24.922-22.947-24.922h-10.929l0.082,48.889
										c0,12.128,9.832,21.96,21.96,21.96h20.804C552.113,233.635,550.102,196.102,550.102,196.102z"/>
								</g>
							</g>
							<path fill="#56BA22" d="M490.292,102.458h-75.115v0.625l-73.179-0.625c-15.472,0-28.016,12.544-28.016,28.017v161.51
								c0,15.473,12.544,28.015,28.016,28.015h73.179h75.115c15.473,0,28.016-12.542,28.016-28.015v-161.51
								C518.308,115.002,505.765,102.458,490.292,102.458z"/>
							<path fill="#94CE28" d="M488.85,64.073h-73.673h-73.673c-16.269,0-29.458,13.189-29.458,29.459v36.823
								c0,16.268,13.189,29.457,29.458,29.457h73.673h73.673c16.27,0,29.458-13.189,29.458-29.457V93.531
								C518.308,77.262,505.12,64.073,488.85,64.073z"/>
							<path fill="#94CE28" d="M471.02,173.851h-56.177h-56.177c-12.128,0-21.96,9.832-21.96,21.96v80.424
								c0,12.128,9.832,21.96,21.96,21.96h56.177h56.177c12.128,0,21.96-9.831,21.96-21.96v-80.424
								C492.98,183.684,483.148,173.851,471.02,173.851z"/>
							<g>
								<g>
									<g>
										<path fill="#7F2C28" d="M472.037,64.073v119.463c0,7.63-6.186,13.817-13.817,13.817c-7.631,0-13.817-6.186-13.817-13.817
											V64.073H472.037z"/>
									</g>
								</g>
								<g>
									<g>
										<path fill="#FFFFFF" d="M436.727,125.145v26.315c0,4.599,3.739,8.336,8.336,8.336h26.318c4.593,0,8.332-3.737,8.332-8.336
											v-26.315c0-4.595-3.739-8.332-8.332-8.332h-26.318C440.466,116.813,436.727,120.55,436.727,125.145z M444.404,125.144
											c0-0.364,0.295-0.657,0.659-0.657h26.318c0.362,0,0.657,0.292,0.657,0.657v26.316c0,0.364-0.295,0.662-0.657,0.662
											h-26.318c-0.364,0-0.659-0.297-0.659-0.662V125.144z"/>
									</g>
									<path fill="#FFFFFF" d="M455.349,122.345c0-1.586,1.286-2.872,2.872-2.872l0,0c1.586,0,2.872,1.286,2.872,2.872v14.405
										c0,1.586-1.286,2.872-2.872,2.872l0,0c-1.586,0-2.872-1.286-2.872-2.872V122.345z"/>
								</g>
							</g>
							<g>
								<g>
									<g>
										<path fill="#7F2C28" d="M358.375,64.073v119.219c0,7.63,6.186,13.817,13.817,13.817c7.631,0,13.817-6.186,13.817-13.817
											V64.073H358.375z"/>
									</g>
								</g>
								<g>
									<g>
										<path fill="#FFFFFF" d="M385.349,116.813h-26.318c-4.593,0-8.332,3.737-8.332,8.332v26.315
											c0,4.599,3.739,8.336,8.332,8.336h26.318c4.597,0,8.336-3.737,8.336-8.336v-26.315
											C393.685,120.55,389.946,116.813,385.349,116.813z M386.008,151.46c0,0.364-0.295,0.662-0.659,0.662h-26.318
											c-0.362,0-0.657-0.297-0.657-0.662v-26.316c0-0.364,0.295-0.657,0.657-0.657h26.318c0.364,0,0.659,0.292,0.659,0.657
											V151.46z"/>
									</g>
									<path fill="#FFFFFF" d="M375.063,122.345c0-1.586-1.286-2.872-2.872-2.872l0,0c-1.586,0-2.872,1.286-2.872,2.872v14.405
										c0,1.586,1.286,2.872,2.872,2.872l0,0c1.586,0,2.872-1.286,2.872-2.872V122.345z"/>
								</g>
							</g>
							<path fill="#EF5854" d="M415.158,28.488c-19.653,0-35.585,15.931-35.585,35.585h13.498c0-12.198,9.889-22.087,22.087-22.087
								c12.198,0,22.087,9.889,22.087,22.087h13.498C450.743,44.419,434.811,28.488,415.158,28.488z"/>
						</g>
					</g>
				</g>
				<g>
					<g>
						<path fill="#127045" d="M474.465,206.604c2.894,0,5.248,2.28,5.248,5.178l0,0c0,2.901-2.354,5.178-5.248,5.178H352.824
							c-2.901,0-5.248-2.277-5.248-5.178l0,0c0-2.898,2.346-5.178,5.248-5.178H474.465z"/>
					</g>
					<path fill="#FFFFFF" d="M479.713,226.469c0,4.236-3.441,7.672-7.67,7.672c-4.294,0-7.675-2.96-7.675-7.672
						c0-4.237,3.436-14.687,7.675-14.687C476.272,211.783,479.713,222.232,479.713,226.469z"/>
				</g>
			</g>
		</g>
	</g>
</g>
</svg>
