<?xml version="1.0" encoding="utf-8"?>
<!-- Generator: Adobe Illustrator 17.0.0, SVG Export Plug-In . SVG Version: 6.00 Build 0)  -->
<!DOCTYPE svg PUBLIC "-//W3C//DTD SVG 1.1//EN" "http://www.w3.org/Graphics/SVG/1.1/DTD/svg11.dtd">
<svg version="1.1" id="Layer_1" xmlns="http://www.w3.org/2000/svg" xmlns:xlink="http://www.w3.org/1999/xlink" x="0px" y="0px"
	 width="730px" height="360px" viewBox="0 0 730 360" enable-background="new 0 0 730 360" xml:space="preserve">
<g>
	<g>
		<g>
			<g>
				<g>
					<path fill="#127045" d="M174.332,346.976c0,6.73-5.653,12.178-12.372,12.178l0,0c-6.732,0-12.381-5.448-12.381-12.178v-12.929
						c0-6.725,5.649-12.18,12.381-12.18l0,0c6.719,0,12.372,5.455,12.372,12.18V346.976z"/>
					<path fill="#127045" d="M294.555,346.976c0,6.73-5.115,12.178-11.834,12.178l0,0c-6.732,0-11.843-5.448-11.843-12.178v-12.929
						c0-6.725,5.111-12.18,11.843-12.18l0,0c6.719,0,11.834,5.455,11.834,12.18V346.976z"/>
					<path fill="#94CE28" d="M302.196,86H200.419h-58.011C127.268,86,114,97.95,114,113.088v9.922v190.268
						C114,328.417,127.268,341,142.408,341h58.011h101.777c15.14,0,27.804-12.583,27.804-27.722V123.01v-9.922
						C330,97.95,317.336,86,302.196,86z"/>
				</g>
				<path fill="#1B9B05" d="M298.696,119h-98.277h-54.511c-6.634,0-10.908,4.824-10.908,11.459v166.339v8.462
					c0,4.692,2.148,9.612,6.073,11.588c1.621,0.816,2.896,2.152,4.835,2.152h54.44h98.347c1.935,0,3.404-1.335,5.023-2.147
					c3.932-1.974,6.281-6.897,6.281-11.594v-8.462V130.459C310,123.824,305.333,119,298.696,119z"/>
				<g>
					<path fill="#127045" d="M295.207,131.222c2.5,0,4.533,1.969,4.533,4.473l0,0c0,2.506-2.033,4.473-4.533,4.473H149.182
						c-2.506,0-4.533-1.967-4.533-4.473l0,0c0-2.503,2.027-4.473,4.533-4.473H295.207z"/>
				</g>
				<path fill="#FFFFFF" d="M155.51,148.38c0,3.659-2.972,6.627-6.625,6.627c-3.709,0-6.629-2.556-6.629-6.627
					c0-3.659,2.968-12.685,6.629-12.685C152.538,135.695,155.51,144.721,155.51,148.38z"/>
			</g>
			<path fill="#FC7575" d="M255.246,20h-54.827h-0.736h-10.502C180.493,20,175,27.807,175,36.497V86h9V35.562
				c0-1.806,2.439-4.562,5.181-4.562h10.502h0.736h54.827c2.745,0,4.754,2.552,4.754,5.293V86h12V36.293
				C272,27.603,263.934,20,255.246,20z"/>
		</g>
		<path fill="#D13D3D" d="M240.392,17h-35.559l0,0c-4.533,0-4.627,4.265-4.627,9.584c0,5.323-0.109,8.416,4.424,8.416l0,0h35.756
			h0.006c5.401,0,4.748-3.599,4.748-9C245.14,20.599,245.794,17,240.392,17z"/>
	</g>
	<g>
		<g>
			<path fill="#D13D3D" d="M665,158.017v-12.439c0-3.996-3.004-7.246-7-7.246s-7,3.25-7,7.246v12.439l-12-2.513v-9.926
				c0-10.669,8.331-19.348,19-19.348s19,8.68,19,19.348v9.926L665,158.017z"/>
			<path fill="#94CE28" d="M658.8,151.002c-39.323,0-71.2,31.877-71.2,71.2v116.364c0,11.37,9.218,20.588,20.588,20.588H658.8
				h50.612c11.37,0,20.588-9.218,20.588-20.588V222.202C730,182.879,698.123,151.002,658.8,151.002z"/>
			<path fill="#56BA22" d="M705.776,281H658.82h-46.957c-5.548,0-9.863,5.455-9.863,11.003v39.604
				c0,5.548,4.315,10.394,9.863,10.394h46.957h46.957c5.548,0,9.224-4.846,9.224-10.394v-39.604
				C715,286.455,711.324,281,705.776,281z"/>
		</g>
		<g>
			<path fill="#127045" d="M700.738,288.833c2.625,0,4.761,2.069,4.761,4.698l0,0c0,2.632-2.135,4.698-4.761,4.698h-84.157
				c-2.632,0-4.761-2.066-4.761-4.698l0,0c0-2.629,2.129-4.698,4.761-4.698H700.738z"/>
		</g>
		<path fill="#FFFFFF" d="M625.742,306.854c0,3.843-3.122,6.96-6.958,6.96c-3.896,0-6.962-2.685-6.962-6.96
			c0-3.843,3.117-13.323,6.962-13.323C622.62,293.53,625.742,303.01,625.742,306.854z"/>
	</g>
	<g>
		<g>
			<g>
				<path fill="#56BA22" d="M553.856,308.034V204.51c-28.7,0-51.966-23.266-51.966-51.966h-3.912H405.97h-95.92
					c0,28.7-23.266,51.966-51.966,51.966v3.913v99.612c28.7,0,51.966,23.266,51.966,51.966h95.92h95.92
					C501.89,331.3,525.156,308.034,553.856,308.034z"/>
				<polygon fill="#3B7F0E" points="272.583,189.019 272.583,189.018 272.573,189.022 				"/>
				<path fill="#3B7F0E" d="M294.945,165.992c-0.002,0.006-0.005,0.013-0.007,0.019h0.001
					C294.939,166.011,294.943,165.998,294.945,165.992z"/>
				<path fill="#3B7F0E" d="M295.689,348.796L295.689,348.796c0.002,0.01,0.005,0.02,0.008,0.03
					C295.694,348.816,295.692,348.806,295.689,348.796z"/>
			</g>
			<rect x="290.042" y="181.022" fill="#94CE28" width="231.857" height="150.499"/>
			<path fill="#127045" d="M310.05,152.544h-12.718v0.001c0,0-0.003,0.042-0.003,0.064c0-0.022,0.002-0.043,0.002-0.043v-0.023
				h-11.309l0,0.001h-16.196c-6.485,0-11.743,5.257-11.743,11.743v16.196v11.308h0.001v12.717
				C286.785,204.51,310.05,181.244,310.05,152.544z M297.19,155.71c-0.021,0.259-0.047,0.516-0.073,0.773
				C297.143,156.226,297.169,155.969,297.19,155.71z M296.736,159.298c-0.014,0.081-0.024,0.162-0.038,0.242
				C296.713,159.461,296.722,159.379,296.736,159.298z M294.945,165.992c-0.002,0.006-0.004,0.013-0.004,0.013l-0.003,0.006
				C294.941,166.005,294.943,165.998,294.945,165.992z M261.479,191.63c0.26-0.023,0.518-0.047,0.776-0.074
				C261.998,191.583,261.739,191.607,261.479,191.63z M265.567,191.076c0.009-0.001,0.017-0.004,0.025-0.005
				C265.584,191.072,265.576,191.074,265.567,191.076z M268.822,190.284c0.198-0.056,0.395-0.112,0.591-0.171
				C269.217,190.172,269.02,190.228,268.822,190.284z M272.583,189.019c-0.003,0.001-0.006,0.002-0.009,0.003
				C272.576,189.021,272.579,189.019,272.583,189.019L272.583,189.019z"/>
			<path fill="#127045" d="M553.856,204.51v-12.717h-0.001v-11.308v-9.314v-6.884c0-6.485-5.257-11.743-11.743-11.743h-6.884
				h-20.621H501.89C501.89,181.244,525.156,204.51,553.856,204.51z"/>
			<path fill="#127045" d="M258.085,308.034v12.718h-0.001v12.853v0.908v13.745c0,6.486,5.257,11.743,11.743,11.743h16.196h3.706
				h7.602c0-0.049-0.004-0.098-0.005-0.147c0,0.049,0.005,0.097,0.005,0.147h12.718C310.05,331.3,286.785,308.034,258.085,308.034z
				 M295.689,348.796c0.003,0.01,0.005,0.021,0.008,0.03C295.694,348.816,295.691,348.806,295.689,348.796L295.689,348.796z"/>
			<path fill="#127045" d="M529.15,360h12.962c6.486,0,11.743-5.257,11.743-11.743v-17.194v-2.399v-7.911h0.001l0-12.718
				c-28.7,0-51.966,23.266-51.966,51.966h12.717H529.15z"/>
		</g>
		<g>
			<g>
				<path fill="#56BA22" d="M304.747,208.277"/>
			</g>
			<g>
				<g>
					<path fill="none" stroke="#1B9B05" stroke-miterlimit="10" d="M296.291,216.732"/>
					<path fill="none" stroke="#1B9B05" stroke-miterlimit="10" d="M296.291,216.732"/>
					<path fill="#D0EB51" d="M281.885,298.549c2.562-6.866,3.801-7.983,10.597-11.892c4.737-2.725,16.541-6.429,23.325-10.582
						c0.712-0.435,20.319-15.021,11.734-23.606c-5.186-5.186-10.833,0.895-12.629,1.423c-10.004,2.941-13.879,1.392-21.581-6.31
						c-7.702-7.702-4.742-23.149,2.96-30.85l8.455-8.455c-7.702,7.702-20.189,7.702-27.891,0c-7.702-7.702-7.702-20.189,0-27.891
						c1.324-1.324,3.423-3.158,5.361-3.858c0.017-0.007,0.034-0.014,0.051-0.021c0.003-0.001,0.006-0.003,0.009-0.004l0,0
						c0.025-0.01,0.049-0.023,0.074-0.034c0.021-0.009,0.044-0.014,0.065-0.023c0.025-0.011,0.048-0.029,0.073-0.041
						c0.28-0.129,0.552-0.278,0.812-0.454c0.028-0.019,0.055-0.041,0.083-0.061c0.272-0.191,0.533-0.402,0.776-0.645
						c2.268-2.268,2.268-5.945,0-8.213c-1.114-1.114-2.568-1.677-4.027-1.697c-0.058,0-0.115,0.001-0.172,0.001
						c-0.008,0-0.017,0-0.025,0c-9.243-0.06-15.831,4.668-21.529,10.366c-0.594,0.594-1.177,1.195-1.747,1.804
						c-5.199,5.541-10.125,11.355-12.679,18.147c-6.185,16.444-14.185,24.469-21.051,27.031
						c-11.679,4.358-72.081,20.194-74.088,48.282c-1.233,17.247,7.663,37.297,31.792,61.426
						c23.222,23.222,41.305,28.558,57.113,27.48C265.841,357.953,277.527,310.228,281.885,298.549z"/>
					<path fill="#FFFFFF" d="M255.735,337.346c7.773-11.411,12.925-27.135,15.769-35.816c0.789-2.408,1.47-4.486,2.066-6.085
						c3.39-9.085,6.135-11.677,14.486-16.481c2.574-1.481,6.109-2.911,10.202-4.565c4.444-1.797,12.527-5.523,15.705-8.021
						c1.614-1.164,1.869-2.258,1.738-2.883c-0.043-0.205-0.617-1.204-2.149-0.926c-11.129,2.023-16.887,0.381-26.823-12.693
						c-6.236-8.206-9.062-19.564-9.416-29.033c-0.062-1.668-0.254-3.121-1.047-5.128c0,0-1.078-2.699-3.983-2.815
						s-4.196,2.753-5.266,5.789c-1.707,4.845-17.082,21.265-39.446,26.198c-22.364,4.932-29.046,26.257-15.101,34.624
						c8.087,4.852,21.208,21.325,21.208,21.325s17.296,10.399,12.899,33.585c-0.393,2.071-1.87,5.295,2.237,7.321
						C252.084,343.354,255.735,337.346,255.735,337.346z"/>
				</g>
			</g>
			<path fill="#1B9B05" d="M389.671,108.477L270.115,228.033c-2.606,2.606-1.237,5.462,1.37,8.069
				c1.345,1.345,4.091,4.091,5.437,5.437c2.606,2.606,5.462,3.976,8.069,1.369l119.556-119.556L389.671,108.477z"/>
			<path fill="#FC7575" d="M277.2,254.475c-1.589,1.589-4.164,1.589-5.752,0l-12.899-12.899c-1.588-1.588-1.588-4.164,0-5.752l0,0
				c1.589-1.588,4.164-1.588,5.752,0l12.899,12.899C278.789,250.311,278.789,252.886,277.2,254.475L277.2,254.475z"/>
			<path fill="#FC7575" d="M259.594,272.081c-1.588,1.588-4.164,1.588-5.752,0l-12.899-12.899c-1.588-1.589-1.588-4.164,0-5.752l0,0
				c1.589-1.588,4.164-1.588,5.752,0l12.899,12.899C261.183,267.917,261.183,270.492,259.594,272.081L259.594,272.081z"/>
			<path fill="#FC7575" d="M241.412,290.02c-1.823,1.312-4.365,0.898-5.677-0.926l-10.656-14.807
				c-1.312-1.823-0.898-4.365,0.926-5.678l0,0c1.823-1.312,4.365-0.898,5.677,0.926l10.656,14.807
				C243.65,286.166,243.236,288.708,241.412,290.02L241.412,290.02z"/>
			<path fill="#1B9B05" d="M233.911,303.391c1.925-1.925,1.925-5.047,0-6.973l-15.688-15.688c-1.925-1.925-5.047-1.925-6.973,0
				l-1.743,1.743c-1.925,1.925-1.925,5.047,0,6.973l15.688,15.688c1.925,1.925,5.047,1.925,6.973,0L233.911,303.391z"/>
			
				<ellipse transform="matrix(0.9989 0.0472 -0.0472 0.9989 15.8481 -10.5494)" fill="#94CE28" cx="231.34" cy="330.359" rx="5.441" ry="14.817"/>
			<circle fill="#FC7575" cx="247.595" cy="299.422" r="4.404"/>
			<circle fill="#EF5854" cx="253.82" cy="311.876" r="4.404"/>
			<circle fill="#D13D3D" cx="254.385" cy="324.898" r="4.404"/>
			<g>
				<path fill="#127045" d="M404.546,123.352c3.935-3.935,13.508-2.101,13.586-2.084c0.776,0.172,1.573-0.192,1.95-0.892
					c0.068-0.125,6.429-11.93,11.252-20.773c4.096,1.682,8.839,0.787,12.063-2.436c4.339-4.339,4.34-11.4,0-15.739
					c-3.358-3.358-8.548-4.194-12.783-2.112c-0.143,0.032-0.284,0.082-0.42,0.151l-37.926,19.326
					c-0.486,0.248-0.832,0.706-0.937,1.241l-1.66,8.443L404.546,123.352z"/>
			</g>
			<path fill="#56BA22" d="M396.476,125.944c-1.033,1.033-2.707,1.033-3.739,0l-5.657-5.657c-1.033-1.033-1.033-2.707,0-3.739l0,0
				c1.033-1.033,2.707-1.033,3.739,0l5.657,5.657C397.509,123.237,397.509,124.911,396.476,125.944L396.476,125.944z"/>
			<path fill="#56BA22" d="M388.997,133.423c-1.033,1.033-2.707,1.033-3.739,0l-5.657-5.657c-1.033-1.033-1.033-2.707,0-3.739l0,0
				c1.033-1.033,2.707-1.033,3.739,0l5.657,5.657C390.03,130.716,390.03,132.39,388.997,133.423L388.997,133.423z"/>
			<path fill="#56BA22" d="M381.519,140.901c-1.033,1.033-2.707,1.033-3.739,0l-5.657-5.657c-1.033-1.033-1.033-2.707,0-3.739l0,0
				c1.033-1.033,2.707-1.033,3.739,0l5.657,5.657C382.551,138.195,382.551,139.869,381.519,140.901L381.519,140.901z"/>
			<path fill="#56BA22" d="M374.04,148.38c-1.033,1.033-2.707,1.033-3.739,0l-5.657-5.657c-1.033-1.033-1.033-2.707,0-3.739l0,0
				c1.033-1.033,2.707-1.033,3.739,0l5.657,5.657C375.072,145.673,375.072,147.347,374.04,148.38L374.04,148.38z"/>
			<path fill="#56BA22" d="M366.561,155.859c-1.033,1.033-2.707,1.033-3.739,0l-5.657-5.657c-1.033-1.033-1.033-2.707,0-3.739l0,0
				c1.033-1.033,2.707-1.033,3.739,0l5.657,5.657C367.594,153.152,367.594,154.826,366.561,155.859L366.561,155.859z"/>
			<path fill="#56BA22" d="M359.082,163.338c-1.033,1.033-2.707,1.033-3.739,0l-5.657-5.657c-1.033-1.033-1.033-2.707,0-3.739l0,0
				c1.033-1.033,2.707-1.033,3.739,0l5.657,5.657C360.115,160.631,360.115,162.305,359.082,163.338L359.082,163.338z"/>
			<path fill="#56BA22" d="M351.604,170.816c-1.033,1.033-2.707,1.033-3.739,0l-5.657-5.657c-1.033-1.033-1.033-2.707,0-3.739l0,0
				c1.033-1.033,2.707-1.033,3.739,0l5.657,5.657C352.636,168.109,352.636,169.784,351.604,170.816L351.604,170.816z"/>
			<path fill="#56BA22" d="M344.125,178.295c-1.033,1.033-2.707,1.033-3.739,0l-5.657-5.657c-1.033-1.033-1.033-2.707,0-3.739l0,0
				c1.033-1.033,2.707-1.033,3.739,0l5.657,5.657C345.158,175.588,345.158,177.262,344.125,178.295L344.125,178.295z"/>
			<path fill="#56BA22" d="M336.646,185.774c-1.033,1.033-2.707,1.033-3.739,0l-5.657-5.657c-1.033-1.033-1.033-2.707,0-3.739l0,0
				c1.033-1.033,2.707-1.033,3.739,0l5.657,5.657C337.679,183.067,337.679,184.741,336.646,185.774L336.646,185.774z"/>
			<path fill="#56BA22" d="M329.167,193.252c-1.033,1.033-2.707,1.033-3.739,0l-5.657-5.657c-1.033-1.033-1.033-2.707,0-3.739l0,0
				c1.033-1.033,2.707-1.033,3.739,0l5.657,5.657C330.2,190.546,330.2,192.22,329.167,193.252L329.167,193.252z"/>
			<path fill="#56BA22" d="M321.689,200.731c-1.033,1.033-2.707,1.033-3.739,0l-5.657-5.657c-1.033-1.033-1.033-2.707,0-3.739l0,0
				c1.033-1.033,2.707-1.033,3.739,0l5.657,5.657C322.721,198.024,322.721,199.699,321.689,200.731L321.689,200.731z"/>
			<path fill="#56BA22" d="M314.21,208.21c-1.033,1.033-2.707,1.033-3.739,0l-5.657-5.657c-1.033-1.033-1.033-2.707,0-3.739l0,0
				c1.033-1.033,2.707-1.033,3.739,0l5.657,5.657C315.243,205.503,315.243,207.177,314.21,208.21L314.21,208.21z"/>
			<path fill="#56BA22" d="M306.731,215.689c-1.033,1.033-2.707,1.033-3.739,0l-5.657-5.657c-1.033-1.033-1.033-2.707,0-3.739l0,0
				c1.033-1.033,2.707-1.033,3.739,0l5.657,5.657C307.764,212.982,307.764,214.656,306.731,215.689L306.731,215.689z"/>
			<path fill="#56BA22" d="M299.253,223.167c-1.033,1.033-2.707,1.033-3.739,0l-5.657-5.657c-1.033-1.033-1.033-2.707,0-3.739l0,0
				c1.033-1.033,2.707-1.033,3.739,0l5.657,5.657C300.285,220.461,300.285,222.135,299.253,223.167L299.253,223.167z"/>
			<path fill="#56BA22" d="M291.774,230.646c-1.033,1.033-2.707,1.033-3.739,0l-5.657-5.657c-1.033-1.033-1.033-2.707,0-3.739l0,0
				c1.033-1.033,2.707-1.033,3.739,0l5.657,5.657C292.806,227.939,292.806,229.614,291.774,230.646L291.774,230.646z"/>
			<path fill="#56BA22" d="M284.295,238.125c-1.033,1.033-2.707,1.033-3.739,0l-5.657-5.657c-1.033-1.033-1.033-2.707,0-3.739l0,0
				c1.033-1.033,2.707-1.033,3.739,0l5.657,5.657C285.328,235.418,285.328,237.092,284.295,238.125L284.295,238.125z"/>
		</g>
		<g>
			<polygon fill="#FC7575" points="389.971,152.598 375.268,152.599 375.268,123.011 389.971,122.724 			"/>
			<rect x="421.68" y="123.011" fill="#FC7575" width="14.989" height="29.588"/>
			<path fill="#D13D3D" d="M441.123,122.701c-9.692-9.692-22.422-14.538-35.153-14.538c-12.73,0-25.461,4.846-35.153,14.538
				c-3.469,3.469-3.469,9.088,0,12.557c3.544,3.547,5.074,7.489,12.557,0c6.23-6.23,14.413-9.345,22.595-9.345
				c8.183,0,16.366,3.115,22.596,9.345c1.733,1.734,4.006,2.601,6.278,2.601s4.546-0.867,6.278-2.601
				C444.592,131.789,444.592,126.169,441.123,122.701z"/>
		</g>
	</g>
	<g>
		<g>
			<g>
				<g>
					<g>
						<g>
							<g>
								<path fill="#94CE28" d="M29.724,270.417l3.415,54.803v19.751H17.323c-8.43,0-15.249-6.834-15.264-15.264
									c-0.025-13.932,6.038-23.198,4.837-39.816C6.355,282.409,29.386,270.39,29.724,270.417z"/>
							</g>
							<g>
								<path fill="#1B9B05" d="M6.234,272.355c0-8.43,7.52-17.323,15.95-17.323h9.166v33.808c0,8.43-8.46,15.437-16.89,15.437H0
									C4.837,298.443,6.234,272.355,6.234,272.355z"/>
								<g>
									<path fill="#94CE28" d="M170.314,270.417v54.803v19.751h12.401c8.43,0,15.249-6.834,15.264-15.264
										c0.025-13.932-6.038-23.198-4.837-39.816C193.683,282.409,170.652,270.39,170.314,270.417z"/>
								</g>
								<path fill="#1B9B05" d="M193.804,272.355c0-8.43-7.52-17.323-15.95-17.323h-7.597l0.057,33.982
									c0,8.43,6.834,15.264,15.264,15.264h14.46C195.201,298.443,193.804,272.355,193.804,272.355z"/>
							</g>
						</g>
						<path fill="#56BA22" d="M152.231,207.264H100.02v0.434l-50.865-0.434c-10.755,0-19.473,8.719-19.473,19.474v112.263
							c0,10.755,8.719,19.473,19.473,19.473h50.865h52.211c10.755,0,19.473-8.718,19.473-19.473V226.738
							C171.704,215.983,162.986,207.264,152.231,207.264z"/>
						<path fill="#94CE28" d="M151.229,180.584H100.02H48.811c-11.308,0-20.476,9.167-20.476,20.476v25.595
							c0,11.308,9.167,20.475,20.476,20.475h51.209h51.209c11.309,0,20.476-9.167,20.476-20.475V201.06
							C171.704,189.751,162.537,180.584,151.229,180.584z"/>
						<path fill="#94CE28" d="M138.835,256.889H99.788H60.74c-8.43,0-15.264,6.834-15.264,15.264v55.902
							c0,8.43,6.834,15.264,15.264,15.264h39.047h39.047c8.43,0,15.264-6.833,15.264-15.264v-55.902
							C154.099,263.723,147.265,256.889,138.835,256.889z"/>
						<g>
							<g>
								<g>
									<path fill="#127045" d="M139.542,180.584v83.037c0,5.304-4.3,9.604-9.604,9.604c-5.304,0-9.604-4.3-9.604-9.604v-83.037
										H139.542z"/>
								</g>
							</g>
							<g>
								<g>
									<path fill="#FFFFFF" d="M114.999,223.034v18.291c0,3.197,2.599,5.794,5.794,5.794h18.294c3.193,0,5.791-2.597,5.791-5.794
										v-18.291c0-3.194-2.599-5.791-5.791-5.791h-18.294C117.597,217.243,114.999,219.84,114.999,223.034z M120.335,223.033
										c0-0.253,0.205-0.457,0.458-0.457h18.293c0.252,0,0.456,0.203,0.456,0.457v18.292c0,0.253-0.205,0.46-0.456,0.46h-18.293
										c-0.253,0-0.458-0.206-0.458-0.46V223.033z"/>
								</g>
								<path fill="#FFFFFF" d="M127.942,221.088c0-1.103,0.894-1.996,1.996-1.996l0,0c1.103,0,1.996,0.894,1.996,1.996V231.1
									c0,1.103-0.894,1.996-1.996,1.996l0,0c-1.103,0-1.996-0.894-1.996-1.996V221.088z"/>
							</g>
						</g>
						<g>
							<g>
								<g>
									<path fill="#127045" d="M60.537,180.584v82.867c0,5.304,4.3,9.604,9.604,9.604s9.604-4.3,9.604-9.604v-82.867H60.537z"/>
								</g>
							</g>
							<g>
								<g>
									<path fill="#FFFFFF" d="M79.287,217.243H60.993c-3.193,0-5.791,2.597-5.791,5.791v18.291c0,3.197,2.599,5.794,5.791,5.794
										h18.293c3.195,0,5.794-2.597,5.794-5.794v-18.291C85.08,219.84,82.482,217.243,79.287,217.243z M79.744,241.325
										c0,0.253-0.205,0.46-0.458,0.46H60.993c-0.252,0-0.456-0.206-0.456-0.46v-18.292c0-0.253,0.205-0.457,0.456-0.457h18.293
										c0.253,0,0.458,0.203,0.458,0.457V241.325z"/>
								</g>
								<path fill="#FFFFFF" d="M72.137,221.088c0-1.103-0.894-1.996-1.996-1.996l0,0c-1.103,0-1.996,0.894-1.996,1.996V231.1
									c0,1.103,0.894,1.996,1.996,1.996l0,0c1.103,0,1.996-0.894,1.996-1.996V221.088z"/>
							</g>
						</g>
						<path fill="#BF2E2E" d="M100.006,155.849c-13.661,0-24.735,11.074-24.735,24.735h9.382c0-8.479,6.873-15.352,15.353-15.352
							c8.479,0,15.353,6.873,15.353,15.352h9.382C124.741,166.923,113.667,155.849,100.006,155.849z"/>
					</g>
				</g>
			</g>
			<g>
				<g>
					<path fill="#127045" d="M141.23,279.655c2.012,0,3.648,1.585,3.648,3.599l0,0c0,2.017-1.636,3.599-3.648,3.599H56.679
						c-2.017,0-3.648-1.583-3.648-3.599l0,0c0-2.014,1.631-3.599,3.648-3.599H141.23z"/>
				</g>
				<path fill="#FFFFFF" d="M144.877,293.463c0,2.944-2.392,5.333-5.332,5.333c-2.985,0-5.335-2.057-5.335-5.333
					c0-2.945,2.388-10.208,5.335-10.208C142.486,283.254,144.877,290.518,144.877,293.463z"/>
			</g>
		</g>
	</g>
	<g>
		<path fill="#1B9B05" d="M684.549,227.727c0-3.62-2.935-6.555-6.555-6.555h-204.07c-3.62,0-6.555,2.935-6.555,6.555V352.6
			c0,3.62,2.935,6.555,6.555,6.555h204.07c3.62,0,6.555-2.935,6.555-6.555V227.727z"/>
		<path fill="#56BA22" d="M665.569,334.237c0,3.62-2.935,6.555-6.555,6.555H492.715c-3.62,0-6.555-2.935-6.555-6.555v-87.415
			c0-3.62,2.935-6.555,6.555-6.555h166.299c3.62,0,6.555,2.935,6.555,6.555V334.237z"/>
		<path fill="#D13D3D" d="M575.96,188.928c-17.829,0-32.282,14.453-32.282,32.282h12.245c0-11.066,8.971-20.037,20.037-20.037
			c11.066,0,20.037,8.971,20.037,20.037h12.245C608.242,203.38,593.789,188.928,575.96,188.928z"/>
		<g>
			<path fill="#127045" d="M654.356,246.492c2.625,0,4.761,2.069,4.761,4.698l0,0c0,2.632-2.135,4.698-4.761,4.698H497.374
				c-2.632,0-4.761-2.066-4.761-4.698l0,0c0-2.629,2.129-4.698,4.761-4.698H654.356z"/>
		</g>
		<path fill="#FFFFFF" d="M659.117,264.513c0,3.843-3.121,6.96-6.958,6.96c-3.896,0-6.962-2.685-6.962-6.96
			c0-3.843,3.117-13.324,6.962-13.324C655.995,251.189,659.117,260.67,659.117,264.513z"/>
	</g>
	<g>
		<g>
			<path fill="#6B3429" d="M500.525,359.155c-4.11,0-8.162-1.045-11.777-3.031c-2.55-0.946-4.275-2.651-5.438-4.05
				c-0.232-0.229-0.459-0.462-0.681-0.7c-1.791,2.357-4.872,5.449-10.094,5.449c-5.205,0-8.284-3.072-10.078-5.426
				c-1.793,2.355-4.872,5.426-10.076,5.426c-5.205,0-8.283-3.071-10.076-5.426c-1.794,2.354-4.872,5.426-10.078,5.426
				c-5.208,0-8.287-3.074-10.081-5.429c-1.793,2.355-4.872,5.429-10.08,5.429c-5.228,0-8.312-3.097-10.102-5.455
				c-0.219,0.234-0.443,0.465-0.671,0.691c-1.167,1.405-2.899,3.119-5.458,4.067c-3.614,1.984-7.665,3.03-11.773,3.03
				c-13.522,0-24.522-11-24.522-24.522c0-5.198,1.614-10.155,4.673-14.369c1.262-2.112,2.885-3.551,4.208-4.725
				c0.334-0.297,0.78-0.692,1.102-1.012c-0.269-0.252-0.613-0.55-0.895-0.795c-2.179-1.887-6.235-5.399-6.235-11.962
				c0-6.563,4.055-10.075,6.234-11.962c0.289-0.251,0.644-0.557,0.915-0.814c-0.271-0.256-0.626-0.562-0.915-0.813
				c-2.179-1.887-6.235-5.4-6.235-11.963c0-6.562,4.056-10.074,6.235-11.962c0.289-0.25,0.642-0.556,0.913-0.811
				c-0.271-0.256-0.625-0.562-0.914-0.812c-2.179-1.887-6.235-5.399-6.235-11.962c0-6.564,4.055-10.077,6.234-11.964
				c0.29-0.251,0.645-0.559,0.917-0.816c-0.272-0.256-0.626-0.563-0.916-0.814c-2.179-1.887-6.234-5.399-6.234-11.962
				c0-6.564,4.055-10.078,6.232-11.966c0.285-0.246,0.632-0.546,0.902-0.8c-0.323-0.321-0.772-0.718-1.108-1.017
				c-1.327-1.177-2.952-2.619-4.214-4.737c-3.054-4.212-4.666-9.164-4.666-14.358c0-13.522,11-24.523,24.522-24.523
				c4.108,0,8.159,1.045,11.773,3.03c2.553,0.946,4.281,2.653,5.445,4.055c0.23,0.227,0.456,0.459,0.677,0.696
				c1.791-2.358,4.872-5.45,10.095-5.45c5.205,0,8.284,3.072,10.078,5.426c1.793-2.355,4.872-5.426,10.076-5.426
				c5.205,0,8.283,3.071,10.077,5.426c1.793-2.354,4.872-5.426,10.078-5.426c5.208,0,8.287,3.074,10.081,5.429
				c1.793-2.355,4.873-5.429,10.08-5.429c5.229,0,8.313,3.098,10.103,5.456c0.217-0.232,0.439-0.461,0.665-0.684
				c1.168-1.409,2.902-3.126,5.467-4.076c3.614-1.982,7.663-3.027,11.769-3.027c13.522,0,24.522,11.001,24.522,24.523
				c0,5.201-1.616,10.161-4.679,14.376c-1.261,2.107-2.881,3.544-4.202,4.716c-0.335,0.297-0.781,0.692-1.103,1.012
				c0.269,0.252,0.613,0.551,0.896,0.795c2.179,1.887,6.235,5.4,6.235,11.962c0,6.563-4.055,10.076-6.235,11.963
				c-0.289,0.251-0.643,0.557-0.914,0.813c0.271,0.256,0.625,0.562,0.914,0.813c2.179,1.887,6.235,5.4,6.235,11.963
				c0,6.562-4.056,10.074-6.235,11.962c-0.289,0.25-0.642,0.556-0.913,0.811c0.271,0.256,0.625,0.563,0.914,0.813
				c2.179,1.887,6.235,5.399,6.235,11.962c0,6.563-4.055,10.076-6.233,11.963c-0.29,0.251-0.645,0.559-0.917,0.816
				c0.272,0.256,0.626,0.563,0.916,0.814c2.179,1.887,6.235,5.399,6.235,11.962c0,6.564-4.055,10.078-6.232,11.966
				c-0.284,0.247-0.632,0.547-0.901,0.801c0.323,0.32,0.771,0.718,1.107,1.016c1.328,1.179,2.955,2.622,4.217,4.743
				c3.053,4.212,4.663,9.163,4.663,14.355C525.047,336.055,521.449,359.155,500.525,359.155z"/>
			<g>
				<path fill="#D13D3D" d="M387.054,333.459h110.478v-61.736c-14.966-13.688-34.893,14.882-56.773,14.882
					c-20.417,0-39.132-29.65-53.704-17.557L387.054,333.459L387.054,333.459z"/>
				<g>
					<rect x="387.054" y="193.409" fill="#FFAEAE" width="110.478" height="23.53"/>
					<path fill="#FC7575" d="M387.054,216.938v52.11c14.572-12.094,33.288,17.556,53.704,17.556
						c21.881,0,41.807-28.57,56.773-14.882v-54.784H387.054z"/>
				</g>
			</g>
			<g>
				<g>
					<path fill="#1B9B05" d="M497.532,333.459v-15.664c-5.502-7.616-13.257-13.499-22.289-16.67
						c-2.669-1.652-5.805-2.622-9.174-2.622c-0.797,0-1.576,0.069-2.345,0.173c-1.277-0.106-2.565-0.173-3.87-0.173
						c-3.273,0-6.465,0.343-9.547,0.987c-1.808-0.638-3.753-0.987-5.78-0.987c-1.805,0-3.54,0.286-5.175,0.796
						c-2.768-0.515-5.617-0.796-8.534-0.796c-2.096,0-4.155,0.152-6.178,0.422c-1.208-0.267-2.458-0.422-3.748-0.422
						c-5.407,0-10.239,2.458-13.445,6.314c-9.401,5.487-16.695,14.181-20.394,24.579v4.063H497.532z"/>
				</g>
				<path fill="#94CE28" d="M438.083,251.605c-9.597,0-15.185-7.808-15.185-17.405v-11.224c0-9.597,5.588-17.405,15.185-17.405
					h7.418c9.597,0,17.405,7.808,17.405,17.405V234.2c0,9.597-7.808,17.405-17.405,17.405H438.083z"/>
				<g>
					<g>
						<path fill="#56BA22" d="M477.219,265.766c-2.712-8.29-7.169-14.283-16.365-14.283h-2.656
							c-2.498,2.016-4.098,5.098-4.098,8.557v5.726v37.397l6.754-1.252c11.448,0,17.4-2.705,17.4-14.153v-15.547
							C478.254,269.96,477.883,267.797,477.219,265.766z"/>
						<g>
							<path fill="#56BA22" d="M425.505,251.483c-9.196,0-13.653,5.993-16.365,14.283c-0.664,2.03-1.035,4.193-1.035,6.446v15.547
								c0,11.448,2.959,20.729,14.408,20.729l0,0l3.319-18.046V260.04c0-3.459,1.601-6.542,4.098-8.557H425.505z"/>
							<polygon fill="#1B9B05" points="452.28,265.766 425.831,265.766 425.831,308.488 432.586,308.488 454.1,308.488 
								454.1,265.766 							"/>
						</g>
					</g>
				</g>
				<path fill="#D0EB51" d="M450.699,251.483v-21.772h-12.977v14.868c0,3.813-3.091,6.904-6.904,6.904h-0.889
					c-2.498,2.016-4.098,5.098-4.098,8.557v5.726h26.449h1.82v-5.726c0-3.459,1.601-6.542,4.098-8.557H450.699z"/>
				<rect x="450.699" y="234.2" fill="#94CE28" width="12.207" height="32.033"/>
				<circle fill="#94CE28" cx="456.891" cy="266.233" r="6.192"/>
				<path fill="#F1FF8D" d="M450.699,234.2c0,4.71-3.818,8.527-8.527,8.527h-5.198c-4.71,0-8.527-3.818-8.527-8.527v-15.663
					c0-4.709,3.818-8.527,8.527-8.527h5.198c4.71,0,8.527,3.818,8.527,8.527V234.2z"/>
				<path fill="#56BA22" d="M433.134,297.749c0-5.866-4.755-10.621-10.621-10.621h-3.786c-5.866,0-10.621,4.755-10.621,10.621l0,0
					c0,5.866,4.755,10.621,10.621,10.621h3.786C428.379,308.37,433.134,303.615,433.134,297.749L433.134,297.749z"/>
				<path fill="#56BA22" d="M482.774,292.346c0-8.857-7.18-16.037-16.037-16.037c-8.857,0-6.634,7.18-6.634,16.037
					c0,8.857-2.223,16.037,6.634,16.037C475.594,308.383,482.774,301.203,482.774,292.346z"/>
				<path fill="#56BA22" d="M422.898,292.346c0-8.857,3.036-16.037-5.821-16.037c-8.857,0-16.037,7.18-16.037,16.037
					c0,8.857,7.18,16.037,16.037,16.037C425.934,308.383,422.898,301.203,422.898,292.346z"/>
				<path fill="#D0EB51" d="M448.473,301.912c0-3.265-2.425-5.957-5.57-6.39v-0.068h-9.395c-3.567,0-6.458,2.891-6.458,6.458
					c0,3.566,2.891,6.458,6.458,6.458h9.395v-0.068C446.048,307.869,448.473,305.177,448.473,301.912z"/>
				<path fill="#56BA22" d="M466.069,300.443c0-4.378-3.549-7.927-7.927-7.927H447.5c-4.378,0-7.927,3.549-7.927,7.927l0,0
					c0,4.378,3.549,7.927,7.927,7.927h19.236C471.115,308.37,466.069,304.821,466.069,300.443L466.069,300.443z"/>
				<g>
					<path fill="#1B9B05" d="M442.495,265.766h-16.722c-3.278,2.515-5.401,6.462-5.401,10.913c0,7.601,6.162,13.762,13.762,13.762
						c7.601,0,13.762-6.161,13.762-13.762C447.896,272.228,445.773,268.281,442.495,265.766z"/>
				</g>
			</g>
		</g>
		<g>
			<path fill="#FFFFFF" d="M497.532,185.325H387.054c-4.465,0-8.084,3.62-8.084,8.084v140.05c0,4.464,3.619,8.084,8.084,8.084
				h110.478c4.465,0,8.084-3.62,8.084-8.084v-140.05C505.616,188.944,501.997,185.325,497.532,185.325z M497.532,333.459H387.054
				v-140.05h110.478V333.459z"/>
		</g>
	</g>
</g>
</svg>
